<mxfile host="app.diagrams.net" modified="2021-05-25T17:36:21.381Z" agent="5.0 (Windows NT 10.0; Win64; x64) AppleWebKit/537.36 (KHTML, like Gecko) Chrome/90.0.4430.212 Safari/537.36" etag="v4a8_cW6mB4wFMYufcRY" version="14.6.13" type="github">
  <diagram name="Page-1" id="12e1b939-464a-85fe-373e-61e167be1490">
    <mxGraphModel dx="948" dy="614" grid="0" gridSize="10" guides="1" tooltips="1" connect="1" arrows="1" fold="1" page="1" pageScale="1.5" pageWidth="1169" pageHeight="826" background="#FAFAFA" math="0" shadow="0">
      <root>
        <mxCell id="0" />
        <mxCell id="1" parent="0" />
        <mxCell id="FRVuSdUvsx5Z02Y6PE5J-3" value="users&#xa;" style="swimlane;fontStyle=0;childLayout=stackLayout;horizontal=1;startSize=26;horizontalStack=0;resizeParent=1;resizeParentMax=0;resizeLast=0;collapsible=1;marginBottom=0;fontSize=15;verticalAlign=top;strokeWidth=2;fontFamily=Comic Sans MS;flipH=1;shadow=0;glass=1;align=center;swimlaneFillColor=none;strokeColor=#457B9D;fontColor=#1D3557;fillColor=#A8DADC;" vertex="1" parent="1">
          <mxGeometry x="49" y="292" width="120" height="132" as="geometry" />
        </mxCell>
        <mxCell id="FRVuSdUvsx5Z02Y6PE5J-4" value="Id" style="text;align=left;verticalAlign=top;spacingLeft=7;spacingRight=0;overflow=hidden;rotatable=0;points=[[0,0.5],[1,0.5]];portConstraint=eastwest;strokeWidth=2;fontFamily=Comic Sans MS;flipH=1;shadow=0;glass=1;fontColor=#1D3557;labelBackgroundColor=none;spacingTop=-2;spacingBottom=0;fontSize=12;" vertex="1" parent="FRVuSdUvsx5Z02Y6PE5J-3">
          <mxGeometry y="26" width="120" height="26" as="geometry" />
        </mxCell>
        <mxCell id="FRVuSdUvsx5Z02Y6PE5J-5" value="name" style="text;align=left;verticalAlign=top;spacingLeft=7;spacingRight=0;overflow=hidden;rotatable=0;points=[[0,0.5],[1,0.5]];portConstraint=eastwest;strokeWidth=2;fontFamily=Comic Sans MS;flipH=1;shadow=0;glass=1;fontColor=#1D3557;labelBackgroundColor=none;spacingTop=-2;spacingBottom=0;fontSize=12;" vertex="1" parent="FRVuSdUvsx5Z02Y6PE5J-3">
          <mxGeometry y="52" width="120" height="28" as="geometry" />
        </mxCell>
        <mxCell id="FRVuSdUvsx5Z02Y6PE5J-56" value="password" style="text;align=left;verticalAlign=top;spacingLeft=7;spacingRight=0;overflow=hidden;rotatable=0;points=[[0,0.5],[1,0.5]];portConstraint=eastwest;strokeWidth=2;fontFamily=Comic Sans MS;flipH=1;shadow=0;glass=1;fontColor=#1D3557;labelBackgroundColor=none;spacingTop=-2;spacingBottom=0;fontSize=12;" vertex="1" parent="FRVuSdUvsx5Z02Y6PE5J-3">
          <mxGeometry y="80" width="120" height="26" as="geometry" />
        </mxCell>
        <mxCell id="FRVuSdUvsx5Z02Y6PE5J-6" value="user_role" style="text;align=left;verticalAlign=top;spacingLeft=7;spacingRight=0;overflow=hidden;rotatable=0;points=[[0,0.5],[1,0.5]];portConstraint=eastwest;strokeWidth=2;fontFamily=Comic Sans MS;flipH=1;shadow=0;glass=1;fontColor=#1D3557;labelBackgroundColor=none;spacingTop=-2;spacingBottom=0;fontSize=12;" vertex="1" parent="FRVuSdUvsx5Z02Y6PE5J-3">
          <mxGeometry y="106" width="120" height="26" as="geometry" />
        </mxCell>
        <mxCell id="FRVuSdUvsx5Z02Y6PE5J-15" value="order_table" style="swimlane;fontStyle=0;childLayout=stackLayout;horizontal=1;startSize=26;horizontalStack=0;resizeParent=1;resizeParentMax=0;resizeLast=0;collapsible=1;marginBottom=0;fontSize=15;strokeWidth=2;fontFamily=Comic Sans MS;flipH=1;shadow=0;glass=1;align=center;swimlaneFillColor=none;strokeColor=#457B9D;fontColor=#1D3557;fillColor=#A8DADC;" vertex="1" parent="1">
          <mxGeometry x="459" y="310" width="120" height="80" as="geometry" />
        </mxCell>
        <mxCell id="FRVuSdUvsx5Z02Y6PE5J-16" value="id" style="text;align=left;verticalAlign=top;spacingLeft=7;spacingRight=0;overflow=hidden;rotatable=0;points=[[0,0.5],[1,0.5]];portConstraint=eastwest;strokeWidth=2;fontFamily=Comic Sans MS;flipH=1;shadow=0;glass=1;fontColor=#1D3557;labelBackgroundColor=none;spacingTop=-2;spacingBottom=0;fontSize=12;" vertex="1" parent="FRVuSdUvsx5Z02Y6PE5J-15">
          <mxGeometry y="26" width="120" height="26" as="geometry" />
        </mxCell>
        <mxCell id="FRVuSdUvsx5Z02Y6PE5J-17" value="table_no" style="text;align=left;verticalAlign=top;spacingLeft=7;spacingRight=0;overflow=hidden;rotatable=0;points=[[0,0.5],[1,0.5]];portConstraint=eastwest;strokeWidth=2;fontFamily=Comic Sans MS;flipH=1;shadow=0;glass=1;fontColor=#1D3557;labelBackgroundColor=none;spacingTop=-2;spacingBottom=0;fontSize=12;" vertex="1" parent="FRVuSdUvsx5Z02Y6PE5J-15">
          <mxGeometry y="52" width="120" height="28" as="geometry" />
        </mxCell>
        <mxCell id="FRVuSdUvsx5Z02Y6PE5J-19" value="menu_category" style="swimlane;fontStyle=0;childLayout=stackLayout;horizontal=1;startSize=26;horizontalStack=0;resizeParent=1;resizeParentMax=0;resizeLast=0;collapsible=1;marginBottom=0;fontSize=15;strokeWidth=2;fontFamily=Comic Sans MS;flipH=1;shadow=0;glass=1;align=center;swimlaneFillColor=none;strokeColor=#457B9D;fontColor=#1D3557;fillColor=#A8DADC;" vertex="1" parent="1">
          <mxGeometry x="239" y="500" width="120" height="104" as="geometry" />
        </mxCell>
        <mxCell id="FRVuSdUvsx5Z02Y6PE5J-20" value="id" style="text;align=left;verticalAlign=top;spacingLeft=7;spacingRight=0;overflow=hidden;rotatable=0;points=[[0,0.5],[1,0.5]];portConstraint=eastwest;strokeWidth=2;fontFamily=Comic Sans MS;flipH=1;shadow=0;glass=1;fontColor=#1D3557;labelBackgroundColor=none;spacingTop=-2;spacingBottom=0;fontSize=12;" vertex="1" parent="FRVuSdUvsx5Z02Y6PE5J-19">
          <mxGeometry y="26" width="120" height="26" as="geometry" />
        </mxCell>
        <mxCell id="FRVuSdUvsx5Z02Y6PE5J-21" value="category_name" style="text;align=left;verticalAlign=top;spacingLeft=7;spacingRight=0;overflow=hidden;rotatable=0;points=[[0,0.5],[1,0.5]];portConstraint=eastwest;strokeWidth=2;fontFamily=Comic Sans MS;flipH=1;shadow=0;glass=1;fontColor=#1D3557;labelBackgroundColor=none;spacingTop=-2;spacingBottom=0;fontSize=12;" vertex="1" parent="FRVuSdUvsx5Z02Y6PE5J-19">
          <mxGeometry y="52" width="120" height="26" as="geometry" />
        </mxCell>
        <mxCell id="FRVuSdUvsx5Z02Y6PE5J-22" value="Item 3" style="text;align=left;verticalAlign=top;spacingLeft=7;spacingRight=0;overflow=hidden;rotatable=0;points=[[0,0.5],[1,0.5]];portConstraint=eastwest;strokeWidth=2;fontFamily=Comic Sans MS;flipH=1;shadow=0;glass=1;fontColor=#1D3557;labelBackgroundColor=none;spacingTop=-2;spacingBottom=0;fontSize=12;" vertex="1" parent="FRVuSdUvsx5Z02Y6PE5J-19">
          <mxGeometry y="78" width="120" height="26" as="geometry" />
        </mxCell>
        <mxCell id="FRVuSdUvsx5Z02Y6PE5J-57" value="user_role" style="swimlane;fontStyle=0;childLayout=stackLayout;horizontal=1;startSize=26;horizontalStack=0;resizeParent=1;resizeParentMax=0;resizeLast=0;collapsible=1;marginBottom=0;fontSize=15;strokeWidth=2;fontFamily=Comic Sans MS;flipH=1;shadow=0;glass=1;arcSize=0;align=center;swimlaneFillColor=none;strokeColor=#457B9D;fontColor=#1D3557;fillColor=#A8DADC;" vertex="1" parent="1">
          <mxGeometry x="49" y="500" width="120" height="78" as="geometry" />
        </mxCell>
        <mxCell id="FRVuSdUvsx5Z02Y6PE5J-59" value="id" style="text;align=left;verticalAlign=top;spacingLeft=7;spacingRight=0;overflow=hidden;rotatable=0;points=[[0,0.5],[1,0.5]];portConstraint=eastwest;strokeWidth=2;fontFamily=Comic Sans MS;flipH=1;shadow=0;glass=1;fontColor=#1D3557;labelBackgroundColor=none;spacingTop=-2;spacingBottom=0;fontSize=12;" vertex="1" parent="FRVuSdUvsx5Z02Y6PE5J-57">
          <mxGeometry y="26" width="120" height="26" as="geometry" />
        </mxCell>
        <mxCell id="FRVuSdUvsx5Z02Y6PE5J-60" value="role" style="text;align=left;verticalAlign=top;spacingLeft=7;spacingRight=0;overflow=hidden;rotatable=0;points=[[0,0.5],[1,0.5]];portConstraint=eastwest;strokeWidth=2;fontFamily=Comic Sans MS;flipH=1;shadow=0;glass=1;fontColor=#1D3557;labelBackgroundColor=none;spacingTop=-2;spacingBottom=0;fontSize=12;" vertex="1" parent="FRVuSdUvsx5Z02Y6PE5J-57">
          <mxGeometry y="52" width="120" height="26" as="geometry" />
        </mxCell>
        <mxCell id="FRVuSdUvsx5Z02Y6PE5J-61" value="billing" style="swimlane;fontStyle=0;childLayout=stackLayout;horizontal=1;startSize=26;horizontalStack=0;resizeParent=1;resizeParentMax=0;resizeLast=0;collapsible=1;marginBottom=0;fontSize=15;strokeWidth=2;fontFamily=Comic Sans MS;flipH=1;shadow=0;glass=1;align=center;swimlaneFillColor=none;strokeColor=#457B9D;fontColor=#1D3557;fillColor=#A8DADC;" vertex="1" parent="1">
          <mxGeometry x="558" y="520" width="120" height="78" as="geometry" />
        </mxCell>
        <mxCell id="FRVuSdUvsx5Z02Y6PE5J-62" value="id" style="text;align=left;verticalAlign=top;spacingLeft=7;spacingRight=0;overflow=hidden;rotatable=0;points=[[0,0.5],[1,0.5]];portConstraint=eastwest;strokeWidth=2;fontFamily=Comic Sans MS;flipH=1;shadow=0;glass=1;fontColor=#1D3557;labelBackgroundColor=none;spacingTop=-2;spacingBottom=0;fontSize=12;" vertex="1" parent="FRVuSdUvsx5Z02Y6PE5J-61">
          <mxGeometry y="26" width="120" height="26" as="geometry" />
        </mxCell>
        <mxCell id="FRVuSdUvsx5Z02Y6PE5J-64" value="order_process_id" style="text;align=left;verticalAlign=top;spacingLeft=7;spacingRight=0;overflow=hidden;rotatable=0;points=[[0,0.5],[1,0.5]];portConstraint=eastwest;strokeWidth=2;fontFamily=Comic Sans MS;flipH=1;shadow=0;glass=1;fontColor=#1D3557;labelBackgroundColor=none;spacingTop=-2;spacingBottom=0;fontSize=12;" vertex="1" parent="FRVuSdUvsx5Z02Y6PE5J-61">
          <mxGeometry y="52" width="120" height="26" as="geometry" />
        </mxCell>
        <mxCell id="FRVuSdUvsx5Z02Y6PE5J-68" value="order_process" style="swimlane;fontStyle=0;childLayout=stackLayout;horizontal=1;startSize=26;horizontalStack=0;resizeParent=1;resizeParentMax=0;resizeLast=0;collapsible=1;marginBottom=0;fontSize=15;strokeWidth=2;fontFamily=Comic Sans MS;flipH=1;shadow=0;glass=1;align=center;swimlaneFillColor=none;strokeColor=#457B9D;fontColor=#1D3557;fillColor=#A8DADC;" vertex="1" parent="1">
          <mxGeometry x="759" y="263" width="120" height="240" as="geometry" />
        </mxCell>
        <mxCell id="FRVuSdUvsx5Z02Y6PE5J-69" value="id&#xa;" style="text;align=left;verticalAlign=top;spacingLeft=7;spacingRight=0;overflow=hidden;rotatable=0;points=[[0,0.5],[1,0.5]];portConstraint=eastwest;strokeWidth=2;fontFamily=Comic Sans MS;flipH=1;shadow=0;glass=1;fontColor=#1D3557;labelBackgroundColor=none;spacingTop=-2;spacingBottom=0;fontSize=12;" vertex="1" parent="FRVuSdUvsx5Z02Y6PE5J-68">
          <mxGeometry y="26" width="120" height="26" as="geometry" />
        </mxCell>
        <mxCell id="FRVuSdUvsx5Z02Y6PE5J-70" value="menu_item_id" style="text;align=left;verticalAlign=top;spacingLeft=7;spacingRight=0;overflow=hidden;rotatable=0;points=[[0,0.5],[1,0.5]];portConstraint=eastwest;strokeWidth=2;fontFamily=Comic Sans MS;flipH=1;shadow=0;glass=1;fontColor=#1D3557;labelBackgroundColor=none;spacingTop=-2;spacingBottom=0;fontSize=12;" vertex="1" parent="FRVuSdUvsx5Z02Y6PE5J-68">
          <mxGeometry y="52" width="120" height="26" as="geometry" />
        </mxCell>
        <mxCell id="FRVuSdUvsx5Z02Y6PE5J-72" value="quantity" style="text;align=left;verticalAlign=top;spacingLeft=7;spacingRight=0;overflow=hidden;rotatable=0;points=[[0,0.5],[1,0.5]];portConstraint=eastwest;strokeWidth=2;fontFamily=Comic Sans MS;flipH=1;shadow=0;glass=1;fontColor=#1D3557;labelBackgroundColor=none;spacingTop=-2;spacingBottom=0;fontSize=12;" vertex="1" parent="FRVuSdUvsx5Z02Y6PE5J-68">
          <mxGeometry y="78" width="120" height="26" as="geometry" />
        </mxCell>
        <mxCell id="FRVuSdUvsx5Z02Y6PE5J-100" value="order_description" style="text;align=left;verticalAlign=top;spacingLeft=7;spacingRight=0;overflow=hidden;rotatable=0;points=[[0,0.5],[1,0.5]];portConstraint=eastwest;strokeWidth=2;fontFamily=Comic Sans MS;flipH=1;shadow=0;glass=1;fontColor=#1D3557;labelBackgroundColor=none;spacingTop=-2;spacingBottom=0;fontSize=12;" vertex="1" parent="FRVuSdUvsx5Z02Y6PE5J-68">
          <mxGeometry y="104" width="120" height="26" as="geometry" />
        </mxCell>
        <mxCell id="FRVuSdUvsx5Z02Y6PE5J-94" value="table_id" style="text;align=left;verticalAlign=top;spacingLeft=7;spacingRight=0;overflow=hidden;rotatable=0;points=[[0,0.5],[1,0.5]];portConstraint=eastwest;strokeWidth=2;fontFamily=Comic Sans MS;flipH=1;shadow=0;glass=1;fontColor=#1D3557;labelBackgroundColor=none;spacingTop=-2;spacingBottom=0;fontSize=12;" vertex="1" parent="FRVuSdUvsx5Z02Y6PE5J-68">
          <mxGeometry y="130" width="120" height="26" as="geometry" />
        </mxCell>
        <mxCell id="FRVuSdUvsx5Z02Y6PE5J-73" value="total_amount" style="text;align=left;verticalAlign=top;spacingLeft=7;spacingRight=0;overflow=hidden;rotatable=0;points=[[0,0.5],[1,0.5]];portConstraint=eastwest;strokeWidth=2;fontFamily=Comic Sans MS;flipH=1;shadow=0;glass=1;fontColor=#1D3557;labelBackgroundColor=none;spacingTop=-2;spacingBottom=0;fontSize=12;" vertex="1" parent="FRVuSdUvsx5Z02Y6PE5J-68">
          <mxGeometry y="156" width="120" height="28" as="geometry" />
        </mxCell>
        <mxCell id="FRVuSdUvsx5Z02Y6PE5J-92" value="is_delivered" style="text;align=left;verticalAlign=top;spacingLeft=7;spacingRight=0;overflow=hidden;rotatable=0;points=[[0,0.5],[1,0.5]];portConstraint=eastwest;strokeWidth=2;fontFamily=Comic Sans MS;flipH=1;shadow=0;glass=1;fontColor=#1D3557;labelBackgroundColor=none;spacingTop=-2;spacingBottom=0;fontSize=12;" vertex="1" parent="FRVuSdUvsx5Z02Y6PE5J-68">
          <mxGeometry y="184" width="120" height="28" as="geometry" />
        </mxCell>
        <mxCell id="FRVuSdUvsx5Z02Y6PE5J-93" value="delivered_at" style="text;align=left;verticalAlign=top;spacingLeft=7;spacingRight=0;overflow=hidden;rotatable=0;points=[[0,0.5],[1,0.5]];portConstraint=eastwest;strokeWidth=2;fontFamily=Comic Sans MS;flipH=1;shadow=0;glass=1;fontColor=#1D3557;labelBackgroundColor=none;spacingTop=-2;spacingBottom=0;fontSize=12;" vertex="1" parent="FRVuSdUvsx5Z02Y6PE5J-68">
          <mxGeometry y="212" width="120" height="28" as="geometry" />
        </mxCell>
        <mxCell id="FRVuSdUvsx5Z02Y6PE5J-82" value="" style="edgeStyle=none;orthogonalLoop=1;jettySize=auto;fontFamily=Comic Sans MS;fontSize=12;startSize=26;labelBackgroundColor=none;strokeColor=#457B9D;fontColor=#1D3557;align=left;spacingTop=-2;spacingRight=0;spacingBottom=0;spacingLeft=7;shadow=0;" edge="1" parent="1">
          <mxGeometry relative="1" as="geometry">
            <mxPoint x="759" y="345" as="targetPoint" />
            <mxPoint x="579" y="345" as="sourcePoint" />
          </mxGeometry>
        </mxCell>
        <mxCell id="FRVuSdUvsx5Z02Y6PE5J-91" value="" style="edgeStyle=orthogonalEdgeStyle;orthogonalLoop=1;jettySize=auto;entryX=1.007;entryY=0.785;entryDx=0;entryDy=0;entryPerimeter=0;fontColor=#1D3557;strokeColor=#457B9D;fillColor=#A8DADC;align=left;labelBackgroundColor=none;spacingTop=-2;spacingRight=0;spacingBottom=0;spacingLeft=7;shadow=0;fontSize=12;" edge="1" parent="1" source="FRVuSdUvsx5Z02Y6PE5J-7" target="FRVuSdUvsx5Z02Y6PE5J-16">
          <mxGeometry relative="1" as="geometry">
            <Array as="points">
              <mxPoint x="389" y="357" />
              <mxPoint x="389" y="357" />
            </Array>
          </mxGeometry>
        </mxCell>
        <mxCell id="FRVuSdUvsx5Z02Y6PE5J-7" value="menu_items" style="swimlane;fontStyle=0;childLayout=stackLayout;horizontal=1;startSize=26;horizontalStack=0;resizeParent=1;resizeParentMax=0;resizeLast=0;collapsible=1;marginBottom=0;fontSize=15;strokeWidth=2;shadow=0;fontFamily=Comic Sans MS;flipH=1;glass=1;align=center;swimlaneFillColor=none;strokeColor=#457B9D;fontColor=#1D3557;fillColor=#A8DADC;" vertex="1" parent="1">
          <mxGeometry x="239" y="263" width="120" height="206" as="geometry" />
        </mxCell>
        <mxCell id="FRVuSdUvsx5Z02Y6PE5J-8" value="id&#xa;" style="text;align=left;verticalAlign=top;spacingLeft=7;spacingRight=0;overflow=hidden;rotatable=0;points=[[0,0.5],[1,0.5]];portConstraint=eastwest;strokeWidth=2;fontFamily=Comic Sans MS;flipH=1;shadow=0;glass=1;fontColor=#1D3557;labelBackgroundColor=none;spacingTop=-2;spacingBottom=0;fontSize=12;" vertex="1" parent="FRVuSdUvsx5Z02Y6PE5J-7">
          <mxGeometry y="26" width="120" height="26" as="geometry" />
        </mxCell>
        <mxCell id="FRVuSdUvsx5Z02Y6PE5J-9" value="item_name" style="text;align=left;verticalAlign=top;spacingLeft=7;spacingRight=0;overflow=hidden;rotatable=0;points=[[0,0.5],[1,0.5]];portConstraint=eastwest;strokeWidth=2;fontFamily=Comic Sans MS;flipH=1;shadow=0;glass=1;fontColor=#1D3557;labelBackgroundColor=none;spacingTop=-2;spacingBottom=0;fontSize=12;" vertex="1" parent="FRVuSdUvsx5Z02Y6PE5J-7">
          <mxGeometry y="52" width="120" height="26" as="geometry" />
        </mxCell>
        <mxCell id="FRVuSdUvsx5Z02Y6PE5J-99" value="description" style="text;align=left;verticalAlign=top;spacingLeft=7;spacingRight=0;overflow=hidden;rotatable=0;points=[[0,0.5],[1,0.5]];portConstraint=eastwest;strokeWidth=2;fontFamily=Comic Sans MS;flipH=1;shadow=0;glass=1;fontColor=#1D3557;labelBackgroundColor=none;spacingTop=-2;spacingBottom=0;fontSize=12;" vertex="1" parent="FRVuSdUvsx5Z02Y6PE5J-7">
          <mxGeometry y="78" width="120" height="26" as="geometry" />
        </mxCell>
        <mxCell id="FRVuSdUvsx5Z02Y6PE5J-10" value="price" style="text;align=left;verticalAlign=top;spacingLeft=7;spacingRight=0;overflow=hidden;rotatable=0;points=[[0,0.5],[1,0.5]];portConstraint=eastwest;strokeWidth=2;fontFamily=Comic Sans MS;flipH=1;shadow=0;glass=1;fontColor=#1D3557;labelBackgroundColor=none;spacingTop=-2;spacingBottom=0;fontSize=12;" vertex="1" parent="FRVuSdUvsx5Z02Y6PE5J-7">
          <mxGeometry y="104" width="120" height="22" as="geometry" />
        </mxCell>
        <mxCell id="FRVuSdUvsx5Z02Y6PE5J-76" value="category_id" style="text;align=left;verticalAlign=top;spacingLeft=7;spacingRight=0;overflow=hidden;rotatable=0;points=[[0,0.5],[1,0.5]];portConstraint=eastwest;strokeWidth=2;fontFamily=Comic Sans MS;flipH=1;shadow=0;glass=1;fontColor=#1D3557;labelBackgroundColor=none;spacingTop=-2;spacingBottom=0;fontSize=12;" vertex="1" parent="FRVuSdUvsx5Z02Y6PE5J-7">
          <mxGeometry y="126" width="120" height="26" as="geometry" />
        </mxCell>
        <mxCell id="FRVuSdUvsx5Z02Y6PE5J-55" value="is_available" style="text;align=left;verticalAlign=top;spacingLeft=7;spacingRight=0;overflow=hidden;rotatable=0;points=[[0,0.5],[1,0.5]];portConstraint=eastwest;strokeWidth=2;fontFamily=Comic Sans MS;flipH=1;shadow=0;glass=1;fontColor=#1D3557;labelBackgroundColor=none;spacingTop=-2;spacingBottom=0;fontSize=12;" vertex="1" parent="FRVuSdUvsx5Z02Y6PE5J-7">
          <mxGeometry y="152" width="120" height="24" as="geometry" />
        </mxCell>
        <mxCell id="FRVuSdUvsx5Z02Y6PE5J-89" value="created_at" style="text;align=left;verticalAlign=top;spacingLeft=7;spacingRight=0;overflow=hidden;rotatable=0;points=[[0,0.5],[1,0.5]];portConstraint=eastwest;strokeWidth=2;fontFamily=Comic Sans MS;flipH=1;shadow=0;glass=1;fontColor=#1D3557;labelBackgroundColor=none;spacingTop=-2;spacingBottom=0;fontSize=12;" vertex="1" parent="FRVuSdUvsx5Z02Y6PE5J-7">
          <mxGeometry y="176" width="120" height="30" as="geometry" />
        </mxCell>
        <mxCell id="FRVuSdUvsx5Z02Y6PE5J-79" value="" style="edgeStyle=none;orthogonalLoop=1;jettySize=auto;entryX=0.973;entryY=-0.1;entryDx=0;entryDy=0;entryPerimeter=0;fontFamily=Comic Sans MS;fontSize=12;startSize=26;labelBackgroundColor=none;strokeColor=#457B9D;fontColor=#1D3557;align=left;spacingTop=-2;spacingRight=0;spacingBottom=0;spacingLeft=7;shadow=0;" edge="1" parent="1">
          <mxGeometry relative="1" as="geometry">
            <mxPoint x="169" y="360" as="sourcePoint" />
            <mxPoint x="242.24" y="360.4" as="targetPoint" />
          </mxGeometry>
        </mxCell>
        <mxCell id="FRVuSdUvsx5Z02Y6PE5J-84" value="" style="edgeStyle=orthogonalEdgeStyle;shape=link;orthogonalLoop=1;jettySize=auto;fontFamily=Comic Sans MS;fontSize=12;startSize=26;entryX=0;entryY=0.5;entryDx=0;entryDy=0;labelBackgroundColor=none;strokeColor=#457B9D;fontColor=#1D3557;align=left;spacingTop=-2;spacingRight=0;spacingBottom=0;spacingLeft=7;shadow=0;width=-3;exitX=0;exitY=0.5;exitDx=0;exitDy=0;" edge="1" parent="1" source="FRVuSdUvsx5Z02Y6PE5J-21" target="FRVuSdUvsx5Z02Y6PE5J-76">
          <mxGeometry relative="1" as="geometry">
            <mxPoint x="229" y="390" as="targetPoint" />
            <mxPoint x="239" y="580" as="sourcePoint" />
            <Array as="points">
              <mxPoint x="199" y="565" />
              <mxPoint x="199" y="402" />
            </Array>
          </mxGeometry>
        </mxCell>
        <mxCell id="FRVuSdUvsx5Z02Y6PE5J-88" value="" style="edgeStyle=orthogonalEdgeStyle;shape=link;orthogonalLoop=1;jettySize=auto;fontFamily=Comic Sans MS;fontSize=12;startSize=26;labelBackgroundColor=none;strokeColor=#457B9D;fontColor=#1D3557;width=-6;align=left;spacingTop=-2;spacingRight=0;spacingBottom=0;spacingLeft=7;shadow=0;" edge="1" parent="1">
          <mxGeometry relative="1" as="geometry">
            <mxPoint x="49" y="390" as="targetPoint" />
            <mxPoint x="49" y="560" as="sourcePoint" />
            <Array as="points">
              <mxPoint x="49" y="560" />
              <mxPoint x="29" y="560" />
              <mxPoint x="29" y="390" />
            </Array>
          </mxGeometry>
        </mxCell>
        <mxCell id="FRVuSdUvsx5Z02Y6PE5J-101" style="edgeStyle=orthogonalEdgeStyle;shape=link;orthogonalLoop=1;jettySize=auto;html=0;shadow=0;labelBackgroundColor=none;fontColor=#1D3557;strokeColor=#457B9D;fillColor=#A8DADC;align=left;startSize=6;strokeWidth=1;endSize=22;targetPerimeterSpacing=4;sourcePerimeterSpacing=-4;fontSize=12;" edge="1" parent="1">
          <mxGeometry relative="1" as="geometry">
            <mxPoint x="759" y="402" as="targetPoint" />
            <mxPoint x="579" y="356" as="sourcePoint" />
            <Array as="points">
              <mxPoint x="669" y="356" />
              <mxPoint x="669" y="402" />
            </Array>
          </mxGeometry>
        </mxCell>
        <mxCell id="FRVuSdUvsx5Z02Y6PE5J-108" style="edgeStyle=orthogonalEdgeStyle;shape=link;orthogonalLoop=1;jettySize=auto;html=0;shadow=0;labelBackgroundColor=none;fontColor=#1D3557;startSize=6;endSize=22;sourcePerimeterSpacing=-4;targetPerimeterSpacing=4;strokeColor=#457B9D;strokeWidth=1;fillColor=#A8DADC;align=left;fontSize=12;" edge="1" parent="1">
          <mxGeometry relative="1" as="geometry">
            <mxPoint x="679" y="580" as="targetPoint" />
            <mxPoint x="879" y="302" as="sourcePoint" />
            <Array as="points">
              <mxPoint x="911" y="302" />
              <mxPoint x="911" y="580" />
            </Array>
          </mxGeometry>
        </mxCell>
      </root>
    </mxGraphModel>
  </diagram>
</mxfile>
